<?xml version="1.0" encoding="utf-8"?>
<!-- Generator: Adobe Illustrator 19.0.0, SVG Export Plug-In . SVG Version: 6.00 Build 0)  -->
<svg version="1.1" id="Capa_1" xmlns="http://www.w3.org/2000/svg" xmlns:xlink="http://www.w3.org/1999/xlink" x="0px" y="0px"
	 viewBox="-288 264.8 225 27.7" style="enable-background:new -288 264.8 225 27.7;" xml:space="preserve">
<style type="text/css">
	.st0{fill:#29ABE3;}
	.st1{fill:#75B52E;}
</style>
<g id="XMLID_38_">
	<path id="XMLID_113_" class="st0" d="M-270,280.3c-0.4,1.9-1.4,3.4-3,4.5l-0.2,0.1c-1.3,0.8-2.9,1.2-4.7,1.2
		c-2.6,0-4.7-0.8-6.3-2.5c-1.5-1.7-2.3-3.8-2.3-6.4c0-2.8,0.8-5.1,2.4-6.9c1.6-1.8,3.8-2.7,6.6-2.7c1.7,0,3.2,0.4,4.5,1.3
		c1.5,1,2.4,2.3,2.8,3.9v0.2c0,0.4-0.1,0.7-0.4,0.9l-0.7,0.4c-0.1,0.1-0.3,0.1-0.5,0.1c-0.5,0-0.9-0.3-1-0.8
		c-0.5-2.2-2.1-3.4-4.7-3.4c-2.1,0-3.6,0.6-4.7,1.9c-1.1,1.3-1.6,2.9-1.6,5c0,1.9,0.5,3.4,1.5,4.5c1.1,1.2,2.5,1.8,4.4,1.8
		c1.2,0,2.3-0.3,3.3-0.9c1-0.6,1.7-1.5,1.9-2.7c0.2-0.7,0.6-1.1,1-1.1c0.1,0,0.3,0,0.4,0.1l0,0l0.8,0.3L-270,280.3z"/>
	<path id="XMLID_110_" class="st0" d="M-252.3,276.9c0,2.8-0.8,5-2.4,6.7c-1.6,1.7-3.7,2.5-6.5,2.5c-2.7,0-4.8-0.9-6.5-2.6
		c-1.5-1.7-2.3-3.9-2.3-6.6c0-2.7,0.8-4.9,2.4-6.7c1.6-1.7,3.8-2.6,6.4-2.6c2.6,0,4.8,0.9,6.4,2.6
		C-253.1,272-252.3,274.2-252.3,276.9z M-255,277c0-2-0.5-3.6-1.6-4.8c-1.1-1.2-2.6-1.8-4.6-1.8c-1.9,0-3.4,0.6-4.5,1.8
		c-1.1,1.2-1.6,2.8-1.6,4.8c0,2,0.5,3.6,1.6,4.8c1.1,1.2,2.6,1.8,4.5,1.8c2,0,3.5-0.6,4.6-1.9C-255.5,280.6-255,279-255,277z"/>
	<path id="XMLID_108_" class="st0" d="M-226.2,284.8c0,0.3-0.1,0.5-0.3,0.7c-0.2,0.2-0.5,0.3-0.7,0.3h-0.7c-0.7,0-1-0.3-1-1v-10.4
		c0-2.7-1.3-4.1-3.8-4.1c-1.4,0-2.5,0.4-3.4,1.2c-0.9,0.8-1.3,1.9-1.3,3.3v9.9c0,0.6-0.3,1-1,1h-0.7c-0.7,0-1-0.3-1-1v-10.4
		c0-2.7-1.3-4.1-3.9-4.1c-1.5,0-2.7,0.6-3.5,1.7c-0.7,1-1.1,2.3-1.1,3.9v8.9c0,0.6-0.3,1-1,1h-0.7c-0.7,0-1-0.3-1-1v-15.7
		c0-0.7,0.3-1,1-1h0.7c0.3,0,0.5,0.1,0.7,0.3c0.2,0.2,0.3,0.4,0.3,0.7v0.4c0.1-0.1,0.3-0.2,0.5-0.4c1.2-0.9,2.7-1.4,4.5-1.4
		c2.3,0,4.1,0.8,5.2,2.5c1.2-1.7,3.2-2.5,5.8-2.5c4.4,0,6.6,2.1,6.6,6.3V284.8z"/>
	<path id="XMLID_106_" class="st0" d="M-108.8,280.3c-0.4,1.9-1.4,3.4-3,4.5l-0.2,0.1c-1.3,0.8-2.9,1.2-4.7,1.2
		c-2.6,0-4.7-0.8-6.3-2.5c-1.5-1.7-2.3-3.8-2.3-6.4c0-2.8,0.8-5.1,2.4-6.9c1.6-1.8,3.8-2.7,6.6-2.7c1.7,0,3.2,0.4,4.5,1.3
		c1.5,1,2.4,2.3,2.8,3.9v0.2c0,0.4-0.1,0.7-0.4,0.9l-0.7,0.4c-0.1,0.1-0.3,0.1-0.5,0.1c-0.5,0-0.9-0.3-1-0.8
		c-0.5-2.2-2.1-3.4-4.7-3.4c-2.1,0-3.6,0.6-4.7,1.9c-1.1,1.3-1.6,2.9-1.6,5c0,1.9,0.5,3.4,1.5,4.5c1.1,1.2,2.5,1.8,4.4,1.8
		c1.2,0,2.3-0.3,3.3-0.9c1-0.6,1.7-1.5,1.9-2.7c0.2-0.7,0.6-1.1,1-1.1c0.1,0,0.3,0,0.4,0.1l0,0l0.8,0.3L-108.8,280.3z"/>
	<path id="XMLID_103_" class="st0" d="M-91.1,276.9c0,2.8-0.8,5-2.4,6.7c-1.6,1.7-3.7,2.5-6.5,2.5c-2.7,0-4.8-0.9-6.5-2.6
		c-1.5-1.7-2.3-3.9-2.3-6.6c0-2.7,0.8-4.9,2.4-6.7s3.8-2.6,6.4-2.6c2.6,0,4.8,0.9,6.4,2.6C-91.9,272-91.1,274.2-91.1,276.9z
		 M-93.8,277c0-2-0.5-3.6-1.6-4.8c-1.1-1.2-2.6-1.8-4.6-1.8c-1.9,0-3.4,0.6-4.5,1.8c-1.1,1.2-1.6,2.8-1.6,4.8c0,2,0.5,3.6,1.6,4.8
		c1.1,1.2,2.6,1.8,4.5,1.8c2,0,3.5-0.6,4.6-1.9C-94.3,280.6-93.8,279-93.8,277z"/>
	<path id="XMLID_101_" class="st0" d="M-65,284.8c0,0.3-0.1,0.5-0.3,0.7c-0.2,0.2-0.5,0.3-0.7,0.3h-0.7c-0.7,0-1-0.3-1-1v-10.4
		c0-2.7-1.3-4.1-3.8-4.1c-1.4,0-2.5,0.4-3.4,1.2c-0.9,0.8-1.3,1.9-1.3,3.3v9.9c0,0.6-0.3,1-1,1H-78c-0.7,0-1-0.3-1-1v-10.4
		c0-2.7-1.3-4.1-3.9-4.1c-1.5,0-2.7,0.6-3.5,1.7c-0.7,1-1.1,2.3-1.1,3.9v8.9c0,0.6-0.3,1-1,1h-0.7c-0.7,0-1-0.3-1-1v-15.7
		c0-0.7,0.3-1,1-1h0.7c0.3,0,0.5,0.1,0.7,0.3c0.2,0.2,0.3,0.4,0.3,0.7v0.4c0.1-0.1,0.3-0.2,0.5-0.4c1.2-0.9,2.7-1.4,4.5-1.4
		c2.3,0,4.1,0.8,5.2,2.5c1.2-1.7,3.2-2.5,5.8-2.5c4.4,0,6.6,2.1,6.6,6.3V284.8z"/>
	<path id="XMLID_98_" class="st0" d="M-207.8,276.9c0,2.8-0.8,5-2.4,6.7c-1.6,1.7-3.7,2.5-6.5,2.5c-2.7,0-4.8-0.9-6.5-2.6
		c-1.5-1.7-2.3-3.9-2.3-6.6c0-2.7,0.8-4.9,2.4-6.7s3.8-2.6,6.4-2.6c2.6,0,4.8,0.9,6.4,2.6C-208.6,272-207.8,274.2-207.8,276.9z
		 M-210.5,277c0-2-0.5-3.6-1.6-4.8c-1.1-1.2-2.6-1.8-4.6-1.8c-1.9,0-3.4,0.6-4.5,1.8c-1.1,1.2-1.6,2.8-1.6,4.8c0,2,0.5,3.6,1.6,4.8
		c1.1,1.2,2.6,1.8,4.5,1.8c2,0,3.5-0.6,4.6-1.9C-211,280.6-210.5,279-210.5,277z"/>
	<path id="XMLID_95_" class="st1" d="M-190.1,276.6c0,2.8-0.7,5-2,6.6c0,0.1,0,0.1-0.1,0.2c-1.5,1.9-3.6,2.8-6.3,2.8
		c-2.4,0-4.3-0.8-5.8-2.4v6.5c0,0.7-0.3,1-1,1h-0.6c-0.6,0-1-0.3-1-1v-21.6c0-0.7,0.3-1,1-1h0.6c0.6,0,1,0.3,1,1v1
		c1.5-1.6,3.4-2.4,5.8-2.4c2.6,0,4.7,0.9,6.3,2.7C-190.9,271.7-190.1,273.9-190.1,276.6z M-192.8,276.7c0-1.9-0.4-3.5-1.3-4.7
		c-1-1.3-2.4-2-4.3-2c-1.9,0-3.4,0.6-4.4,1.9c-1,1.2-1.6,2.8-1.6,4.8c0,4.6,2,7,5.9,7c1.8,0,3.2-0.6,4.2-1.9
		C-193.3,280.3-192.8,278.7-192.8,276.7z"/>
	<path id="XMLID_92_" class="st1" d="M-173.1,284.8c0,0.7-0.3,1-1,1h-0.7c-0.7,0-1-0.3-1-1v-1c-1.5,1.6-3.4,2.3-5.9,2.3
		c-2.6,0-4.7-0.9-6.2-2.7c-1.4-1.7-2.1-3.8-2.1-6.5c0-2.7,0.7-4.8,2.2-6.5c1.6-1.8,3.7-2.7,6.3-2.7c2.4,0,4.4,0.8,5.8,2.3v-1.3
		c0-0.3,0.1-0.5,0.3-0.7c0.2-0.2,0.4-0.3,0.7-0.3h0.7c0.7,0,1,0.3,1,1V284.8z M-175.8,277c0-2-0.5-3.6-1.4-4.8
		c-1-1.2-2.5-1.9-4.5-1.9c-1.8,0-3.2,0.7-4.3,2c-1,1.2-1.4,2.8-1.4,4.7c0,1.9,0.4,3.4,1.3,4.6c0,0,0.1,0.1,0.2,0.1
		c1,1.3,2.4,1.9,4.2,1.9s3.3-0.6,4.3-1.9C-176.3,280.5-175.8,278.9-175.8,277z"/>
	<path id="XMLID_54_" class="st1" d="M-155.5,284.2c0,5-2.7,7.5-8,7.5c-2.1,0-3.8-0.5-5.2-1.4c-1.5-1.1-2.3-2.6-2.4-4.6
		c0-0.7,0.3-1.1,1-1.1h0.7c0.5,0,0.9,0.3,1,1c0.1,2.3,1.8,3.5,4.9,3.5c3.6,0,5.3-1.6,5.3-4.9v-0.8c-1.6,1.4-3.5,2.1-5.7,2.1
		c-2.5,0-4.6-0.9-6-2.6c-1.4-1.7-2.1-3.8-2.1-6.5s0.8-4.9,2.3-6.6c1.5-1.7,3.6-2.6,6.1-2.6c2.2,0,4,0.7,5.5,2.2v-0.8
		c0-0.3,0.1-0.5,0.3-0.7c0.2-0.2,0.4-0.3,0.7-0.3h0.7c0.7,0,1,0.3,1,1V284.2z M-158.2,276.5c0-1.8-0.5-3.3-1.5-4.6
		c-1-1.3-2.4-1.9-4-1.9c-1.7,0-3.1,0.6-4.2,1.9c-1,1.3-1.5,2.8-1.5,4.6c0,1.8,0.5,3.3,1.4,4.5c1,1.3,2.4,1.9,4.1,1.9
		c1.8,0,3.2-0.6,4.2-1.7C-158.7,279.9-158.2,278.4-158.2,276.5z"/>
	<path id="XMLID_45_" class="st1" d="M-137.2,276.9c0,2.8-0.8,5-2.4,6.7c-1.6,1.7-3.7,2.5-6.5,2.5c-2.7,0-4.8-0.9-6.5-2.6
		c-1.5-1.7-2.3-3.9-2.3-6.6c0-2.7,0.8-4.9,2.4-6.7s3.8-2.6,6.4-2.6c2.6,0,4.8,0.9,6.4,2.6C-137.9,272-137.2,274.2-137.2,276.9z
		 M-139.8,277c0-2-0.5-3.6-1.6-4.8c-1.1-1.2-2.6-1.8-4.6-1.8c-1.9,0-3.4,0.6-4.5,1.8c-1.1,1.2-1.6,2.8-1.6,4.8c0,2,0.5,3.6,1.6,4.8
		c1.1,1.2,2.6,1.8,4.5,1.8c2,0,3.5-0.6,4.6-1.9C-140.3,280.6-139.8,279-139.8,277z"/>
	<circle id="XMLID_39_" class="st0" cx="-131.3" cy="283.3" r="3.4"/>
</g>
</svg>
