<?xml version="1.0" encoding="utf-8"?>
<!-- Generator: Adobe Illustrator 19.0.0, SVG Export Plug-In . SVG Version: 6.00 Build 0)  -->
<svg version="1.1" id="Capa_1" xmlns="http://www.w3.org/2000/svg" xmlns:xlink="http://www.w3.org/1999/xlink" x="0px" y="0px"
	 viewBox="-288 250.1 200 53.7" style="enable-background:new -288 250.1 200 53.7;" xml:space="preserve">
<style type="text/css">
	.st0{fill:#FFFFFF;}
</style>
<g id="XMLID_38_">
	<path id="XMLID_113_" class="st0" d="M-272,280.1c-0.3,1.7-1.2,3-2.7,4l-0.2,0.1c-1.2,0.7-2.6,1.1-4.2,1.1c-2.4,0-4.2-0.7-5.6-2.2
		c-1.4-1.5-2.1-3.4-2.1-5.7c0-2.5,0.7-4.6,2.1-6.1c1.4-1.6,3.4-2.4,5.9-2.4c1.5,0,2.9,0.4,4,1.1c1.3,0.9,2.2,2,2.5,3.5v0.2
		c0,0.4-0.1,0.6-0.4,0.8l-0.6,0.4c-0.1,0.1-0.2,0.1-0.4,0.1c-0.5,0-0.8-0.2-0.9-0.7c-0.5-2-1.9-3-4.2-3c-1.8,0-3.2,0.6-4.2,1.7
		c-1,1.1-1.4,2.6-1.4,4.5c0,1.7,0.4,3.1,1.3,4.1c0.9,1.1,2.3,1.6,3.9,1.6c1.1,0,2.1-0.3,2.9-0.8c0.9-0.6,1.5-1.4,1.7-2.4
		c0.2-0.6,0.5-0.9,0.9-0.9c0.1,0,0.3,0,0.4,0.1l0,0l0.7,0.3L-272,280.1z"/>
	<path id="XMLID_110_" class="st0" d="M-256.2,277.1c0,2.5-0.7,4.5-2.1,6c-1.4,1.5-3.3,2.3-5.8,2.3c-2.4,0-4.3-0.8-5.8-2.3
		c-1.4-1.5-2.1-3.4-2.1-5.9c0-2.4,0.7-4.4,2.2-5.9c1.4-1.5,3.4-2.3,5.7-2.3c2.3,0,4.2,0.8,5.7,2.3
		C-256.9,272.6-256.2,274.6-256.2,277.1z M-258.6,277.1c0-1.8-0.5-3.2-1.4-4.3c-0.9-1.1-2.3-1.6-4.1-1.6c-1.7,0-3.1,0.5-4,1.6
		c-1,1.1-1.4,2.5-1.4,4.3c0,1.8,0.5,3.2,1.4,4.3c1,1.1,2.3,1.6,4,1.6c1.8,0,3.1-0.6,4.1-1.7C-259,280.3-258.6,278.9-258.6,277.1z"/>
	<path id="XMLID_108_" class="st0" d="M-232.9,284.1c0,0.2-0.1,0.4-0.3,0.6c-0.2,0.2-0.4,0.3-0.6,0.3h-0.6c-0.6,0-0.9-0.3-0.9-0.9
		v-9.3c0-2.4-1.1-3.6-3.4-3.6c-1.2,0-2.3,0.4-3,1.1c-0.8,0.7-1.2,1.7-1.2,2.9v8.9c0,0.6-0.3,0.9-0.9,0.9h-0.6
		c-0.6,0-0.9-0.3-0.9-0.9v-9.3c0-2.4-1.2-3.6-3.5-3.6c-1.3,0-2.4,0.5-3.2,1.5c-0.7,0.9-1,2-1,3.4v7.9c0,0.6-0.3,0.9-0.9,0.9h-0.6
		c-0.6,0-0.9-0.3-0.9-0.9v-14c0-0.6,0.3-0.9,0.9-0.9h0.6c0.2,0,0.4,0.1,0.6,0.3c0.2,0.2,0.3,0.4,0.3,0.6v0.3
		c0.1-0.1,0.3-0.2,0.5-0.3c1.1-0.8,2.4-1.2,4-1.2c2.1,0,3.6,0.7,4.6,2.2c1.1-1.5,2.8-2.2,5.2-2.2c3.9,0,5.9,1.9,5.9,5.7V284.1z"/>
	<path id="XMLID_106_" class="st0" d="M-128.1,280.1c-0.3,1.7-1.2,3-2.7,4l-0.2,0.1c-1.2,0.7-2.6,1.1-4.2,1.1
		c-2.4,0-4.2-0.7-5.6-2.2c-1.4-1.5-2.1-3.4-2.1-5.7c0-2.5,0.7-4.6,2.1-6.1c1.4-1.6,3.4-2.4,5.9-2.4c1.5,0,2.9,0.4,4,1.1
		c1.3,0.9,2.2,2,2.5,3.5v0.2c0,0.4-0.1,0.6-0.4,0.8l-0.6,0.4c-0.1,0.1-0.2,0.1-0.4,0.1c-0.5,0-0.8-0.2-0.9-0.7c-0.5-2-1.9-3-4.2-3
		c-1.8,0-3.2,0.6-4.2,1.7c-1,1.1-1.4,2.6-1.4,4.5c0,1.7,0.4,3.1,1.3,4.1c0.9,1.1,2.3,1.6,3.9,1.6c1.1,0,2.1-0.3,2.9-0.8
		c0.9-0.6,1.5-1.4,1.7-2.4c0.2-0.6,0.5-0.9,0.9-0.9c0.1,0,0.3,0,0.4,0.1l0,0l0.7,0.3L-128.1,280.1z"/>
	<path id="XMLID_103_" class="st0" d="M-112.3,277.1c0,2.5-0.7,4.5-2.1,6c-1.4,1.5-3.3,2.3-5.8,2.3c-2.4,0-4.3-0.8-5.8-2.3
		c-1.4-1.5-2.1-3.4-2.1-5.9c0-2.4,0.7-4.4,2.2-5.9c1.4-1.5,3.4-2.3,5.7-2.3c2.3,0,4.2,0.8,5.7,2.3
		C-113,272.6-112.3,274.6-112.3,277.1z M-114.7,277.1c0-1.8-0.5-3.2-1.4-4.3c-0.9-1.1-2.3-1.6-4.1-1.6c-1.7,0-3.1,0.5-4,1.6
		c-1,1.1-1.4,2.5-1.4,4.3c0,1.8,0.5,3.2,1.4,4.3c1,1.1,2.3,1.6,4,1.6c1.8,0,3.1-0.6,4.1-1.7C-115.1,280.3-114.7,278.9-114.7,277.1z"
		/>
	<path id="XMLID_101_" class="st0" d="M-89,284.1c0,0.2-0.1,0.4-0.3,0.6c-0.2,0.2-0.4,0.3-0.6,0.3h-0.6c-0.6,0-0.9-0.3-0.9-0.9v-9.3
		c0-2.4-1.1-3.6-3.4-3.6c-1.2,0-2.3,0.4-3,1.1c-0.8,0.7-1.2,1.7-1.2,2.9v8.9c0,0.6-0.3,0.9-0.9,0.9h-0.6c-0.6,0-0.9-0.3-0.9-0.9
		v-9.3c0-2.4-1.2-3.6-3.5-3.6c-1.3,0-2.4,0.5-3.2,1.5c-0.7,0.9-1,2-1,3.4v7.9c0,0.6-0.3,0.9-0.9,0.9h-0.6c-0.6,0-0.9-0.3-0.9-0.9
		v-14c0-0.6,0.3-0.9,0.9-0.9h0.6c0.2,0,0.4,0.1,0.6,0.3c0.2,0.2,0.3,0.4,0.3,0.6v0.3c0.1-0.1,0.3-0.2,0.5-0.3c1.1-0.8,2.4-1.2,4-1.2
		c2.1,0,3.6,0.7,4.6,2.2c1.1-1.5,2.8-2.2,5.2-2.2c3.9,0,5.9,1.9,5.9,5.7V284.1z"/>
	<path id="XMLID_98_" class="st0" d="M-216.5,277.1c0,2.5-0.7,4.5-2.1,6c-1.4,1.5-3.3,2.3-5.8,2.3c-2.4,0-4.3-0.8-5.8-2.3
		c-1.4-1.5-2.1-3.4-2.1-5.9c0-2.4,0.7-4.4,2.2-5.9c1.4-1.5,3.4-2.3,5.7-2.3c2.3,0,4.2,0.8,5.7,2.3
		C-217.2,272.6-216.5,274.6-216.5,277.1z M-218.9,277.1c0-1.8-0.5-3.2-1.4-4.3c-0.9-1.1-2.3-1.6-4.1-1.6c-1.7,0-3.1,0.5-4,1.6
		c-1,1.1-1.4,2.5-1.4,4.3c0,1.8,0.5,3.2,1.4,4.3c1,1.1,2.3,1.6,4,1.6c1.8,0,3.1-0.6,4.1-1.7C-219.3,280.3-218.9,278.9-218.9,277.1z"
		/>
	<path id="XMLID_95_" class="st0" d="M-200.7,276.8c0,2.5-0.6,4.4-1.8,5.9c0,0.1,0,0.1-0.1,0.2c-1.3,1.7-3.2,2.5-5.7,2.5
		c-2.1,0-3.9-0.7-5.2-2.1v5.8c0,0.6-0.3,0.9-0.9,0.9h-0.6c-0.6,0-0.9-0.3-0.9-0.9v-19.3c0-0.6,0.3-0.9,0.9-0.9h0.6
		c0.6,0,0.9,0.3,0.9,0.9v0.9c1.3-1.4,3.1-2.1,5.2-2.1c2.4,0,4.2,0.8,5.6,2.4C-201.4,272.3-200.7,274.3-200.7,276.8z M-203.1,276.8
		c0-1.7-0.4-3.1-1.2-4.2c-0.9-1.2-2.2-1.8-3.8-1.8c-1.7,0-3,0.6-3.9,1.7c-0.9,1.1-1.4,2.5-1.4,4.3c0,4.1,1.8,6.2,5.3,6.2
		c1.6,0,2.8-0.6,3.7-1.7C-203.5,280.1-203.1,278.6-203.1,276.8z"/>
	<path id="XMLID_92_" class="st0" d="M-185.5,284.1c0,0.6-0.3,0.9-0.9,0.9h-0.6c-0.6,0-0.9-0.3-0.9-0.9v-0.9
		c-1.3,1.4-3.1,2.1-5.3,2.1c-2.4,0-4.2-0.8-5.6-2.4c-1.3-1.5-1.9-3.4-1.9-5.8c0-2.4,0.7-4.3,2-5.8c1.4-1.6,3.3-2.4,5.6-2.4
		c2.2,0,3.9,0.7,5.2,2.1v-1.2c0-0.2,0.1-0.5,0.3-0.6c0.2-0.2,0.4-0.3,0.6-0.3h0.6c0.6,0,0.9,0.3,0.9,0.9V284.1z M-187.9,277.1
		c0-1.8-0.4-3.2-1.3-4.2c-0.9-1.1-2.2-1.7-4-1.7c-1.6,0-2.9,0.6-3.8,1.8c-0.9,1.1-1.3,2.5-1.3,4.2c0,1.7,0.4,3.1,1.1,4.1
		c0,0,0.1,0.1,0.2,0.1c0.9,1.1,2.2,1.7,3.8,1.7s2.9-0.5,3.9-1.7C-188.3,280.2-187.9,278.8-187.9,277.1z"/>
	<path id="XMLID_54_" class="st0" d="M-169.8,283.6c0,4.5-2.4,6.7-7.2,6.7c-1.9,0-3.4-0.4-4.6-1.3c-1.4-0.9-2.1-2.3-2.1-4.1
		c0-0.7,0.3-1,0.9-1h0.6c0.5,0,0.8,0.3,0.9,0.9c0.1,2.1,1.6,3.1,4.4,3.1c3.2,0,4.8-1.4,4.8-4.3v-0.7c-1.4,1.3-3.1,1.9-5.1,1.9
		c-2.3,0-4.1-0.8-5.4-2.3c-1.3-1.5-1.9-3.4-1.9-5.8s0.7-4.3,2-5.9c1.3-1.5,3.2-2.3,5.5-2.3c1.9,0,3.6,0.7,4.9,2v-0.7
		c0-0.2,0.1-0.4,0.3-0.6c0.2-0.2,0.4-0.3,0.6-0.3h0.6c0.6,0,0.9,0.3,0.9,0.9V283.6z M-172.2,276.6c0-1.6-0.5-3-1.4-4.1
		s-2.1-1.7-3.6-1.7c-1.6,0-2.8,0.6-3.7,1.7c-0.9,1.1-1.4,2.5-1.4,4.1s0.4,3,1.2,4c0.9,1.2,2.1,1.7,3.7,1.7c1.6,0,2.9-0.5,3.8-1.6
		C-172.6,279.7-172.2,278.4-172.2,276.6z"/>
	<path id="XMLID_45_" class="st0" d="M-153.4,277.1c0,2.5-0.7,4.5-2.1,6c-1.4,1.5-3.3,2.3-5.8,2.3c-2.4,0-4.3-0.8-5.8-2.3
		c-1.4-1.5-2.1-3.4-2.1-5.9c0-2.4,0.7-4.4,2.2-5.9c1.4-1.5,3.4-2.3,5.7-2.3c2.3,0,4.2,0.8,5.7,2.3
		C-154.1,272.6-153.4,274.6-153.4,277.1z M-155.8,277.1c0-1.8-0.5-3.2-1.4-4.3c-0.9-1.1-2.3-1.6-4.1-1.6c-1.7,0-3.1,0.5-4,1.6
		c-1,1.1-1.4,2.5-1.4,4.3c0,1.8,0.5,3.2,1.4,4.3c1,1.1,2.3,1.6,4,1.6c1.8,0,3.1-0.6,4.1-1.7C-156.2,280.3-155.8,278.9-155.8,277.1z"
		/>
	<circle id="XMLID_39_" class="st0" cx="-148.2" cy="282.7" r="3.1"/>
</g>
</svg>
